<?xml version="1.0"?><svg width="640" height="480" xmlns="http://www.w3.org/2000/svg" xmlns:xlink="http://www.w3.org/1999/xlink">
 <title>American Football</title>
 <defs>
  <linearGradient id="linearGradient10874">
   <stop id="stop10876" offset="0" stop-color="#3c1a0f"/>
   <stop id="stop10878" offset="1" stop-color="#d7bbb3"/>
  </linearGradient>
  <linearGradient id="linearGradient10852">
   <stop id="stop10854" offset="0" stop-color="#391b0f"/>
   <stop id="stop10856" offset="0.109891" stop-color="#5b2318"/>
   <stop id="stop10858" offset="0.274727" stop-color="#5b2318"/>
   <stop id="stop10860" offset="1" stop-color="#905036"/>
  </linearGradient>
  <linearGradient x1="0.548812" y1="0.545389" x2="0.304545" y2="0.259412" id="linearGradient10949" xlink:href="#linearGradient10874"/>
  <linearGradient x1="0.723021" y1="0.765166" x2="0.362904" y2="0.351601" id="linearGradient10954" xlink:href="#linearGradient10852"/>
  <pattern id="pattern11050" patternTransform="translate(908.493, 821.85)" height="21.849281" width="27.389408" patternUnits="userSpaceOnUse">
   <path d="m11.00694,11.76672c3.53863,-1.007339 3.370131,-1.51101 6.740251,0.167891c3.370129,1.6789 2.022079,2.51836 0.674019,4.029369c-1.348049,1.511011 -5.897709,4.868811 -7.582769,3.02202c-1.68506,-1.84679 -3.70714,-1.511009 -2.86461,-3.3578c0.84254,-1.846789 3.03311,-3.86148 3.03311,-3.86148z" id="path11012" fill="#8b4c33"/>
   <path d="m19.937771,4.88323c-2.6961,1.6789 -4.381161,2.18258 -3.70713,3.69358c0.674019,1.51102 2.190569,3.02203 3.370119,3.02203c1.17955,0 3.70714,2.01467 4.886681,0.503671c1.179541,-1.511021 3.201611,-2.18257 2.864599,-4.19726c-0.337009,-2.01468 0,-2.51835 -2.696089,-3.3578c-2.6961,-0.83945 -4.71818,0.33578 -4.71818,0.33578z" id="path11014" fill="#8b4c33"/>
   <path d="m21.117319,14.95664c-1.685059,2.18257 -3.370129,2.18257 -3.201618,3.52569c0.168509,1.34313 1.179539,3.52569 3.370119,3.357809c2.19059,-0.1679 4.71818,-0.50367 4.886681,-2.518349c0.168499,-2.01469 1.853569,-4.197261 0,-4.86882c-1.853571,-0.67156 -5.055182,0.50367 -5.055182,0.50367z" id="path11016" fill="#8b4c33"/>
   <path d="m8.81637,8.40892c3.0331,0.83945 4.04414,0.33578 4.71816,-0.167891c0.67403,-0.50367 1.17955,-1.17522 2.359091,-2.68624c1.17954,-1.51101 0.674029,-3.18991 -0.16851,-4.36515c-0.84252,-1.17523 -0.84252,-1.17523 -2.69609,-0.50367c-1.85357,0.67156 -3.20162,1.00734 -3.20162,3.02203c0,2.01468 -1.01103,4.70092 -1.01103,4.70092z" id="path11018" fill="#8b4c33"/>
   <path d="m7.80533,3.20433c-0.33701,2.35046 0.842531,3.69358 -1.01104,5.37248c-1.85356,1.6789 -4.38116,5.37248 -5.05518,2.51835c-0.67403,-2.85413 -2.86461,-4.197249 -1.01104,-6.8835c1.85356,-2.68624 2.19058,-4.86881 4.21266,-4.02936c2.02207,0.83945 2.8646,3.02203 2.8646,3.02203z" id="path11020" fill="#8b4c33"/>
   <path d="m7.46832,10.59149c1.85356,-0.50366 2.52759,-1.34312 1.01103,2.18257c-1.51655,3.525701 -3.37012,7.722949 -4.38115,7.219279c-1.01105,-0.50367 -2.5276,-3.861469 -2.19059,-5.204599c0.33701,-1.34311 2.35909,-1.17523 3.20162,-2.350451c0.84253,-1.17524 2.35909,-1.8468 2.35909,-1.8468z" id="path11022" fill="#8b4c33"/>
  </pattern>
 </defs>
 <metadata id="metadata10023">image/svg+xmlAmerican Football2010-09-26Jason M. Simanekfootball american ball</metadata>
 <g>
  <title>Layer 1</title>
  <g transform="rotate(44.24306106567383 320.0359802246094,228.39108276367188) " id="layer6" display="inline">
   <g id="g11074">
    <path d="m202.841965,98.05825c103.579666,-97.526732 218.942978,-98.732726 251.556381,-97.287841c26.949036,1.193909 49.737,4.052857 59.989471,6.278381c17.132446,3.719055 12.430908,3.710815 23.042175,16.716857c10.611267,13.005981 16.898254,13.667725 17.279175,34.635071c0.314819,17.325684 2.950806,104.495491 -29.775696,180.945381c-32.726563,76.449768 -55.76651,95.504333 -85.492523,123.493286c-29.726135,27.989014 -97.480865,72.358215 -172.966461,88.182129c-39.110458,8.198608 -147.045609,3.874512 -153.953072,-5.235779c-2.780266,-4.184326 -6.985847,-8.857117 -10.326591,-11.398132c-7.493523,-8.386169 -12.515503,-25.938965 -13.295723,-40.449341c-0.780266,-14.510498 -6.487152,-96.17041 29.873405,-175.295471c36.360489,-79.125244 84.069458,-120.584541 84.069458,-120.584541z" id="path10183" stroke-miterlimit="4" stroke-width="2" stroke="#391b0f" fill="url(#linearGradient10954)"/>
    <path d="m114.784714,227.728912c-8.549873,20.393311 -14.432106,40.770508 -18.445953,59.95752c2.377274,5.008179 5.275009,11.026917 6.111664,12.346252c1.310532,2.065857 4.867691,3.661621 4.867691,3.661621c0,0 -0.119598,2.872131 3.35038,6.755615c3.469971,3.882935 49.490974,59.574097 67.060036,80.434326c17.568558,20.860962 29.889923,33.450806 31.491455,35.243103c0.917679,1.026611 2.677094,2.243103 4.07193,3.12793c7.668655,-2.176758 20.144028,-5.861694 29.257797,-9.283813c12.722107,-4.776855 20.590607,-8.093079 25.288147,-10.214233c-0.458374,-1.786133 -1.3909,-4.274414 -3.192749,-5.566895c-2.983978,-2.140259 -50.040314,-52.981567 -73.723862,-81.285156c-23.683624,-28.303772 -58.598648,-68.584473 -60.20018,-70.376831c-1.601074,-1.792297 -1.688904,-6.682129 -1.688904,-6.682129c0,0 -1.467331,1.933594 -5.180115,-2.820923c-3.71286,-4.754578 -6.585587,-9.742188 -7.872055,-12.381348c-0.310776,-0.637573 -0.730606,-1.69751 -1.195282,-2.915039l0,0z" id="path10193" fill="#ffffff"/>
    <path d="m346.958008,14.637902c3.76944,0.729797 8.125031,1.87567 11.002014,3.591674c4.992065,2.977234 3.567169,2.150759 7.861633,6.357422c3.038208,2.97583 1.800354,3.443787 0.811615,3.467531c1.690399,0.099302 6.406586,0.502928 7.72641,1.980284c1.601532,1.792299 40.569275,41.396484 65.999023,68.056152c25.429657,26.65979 64.767914,74.884773 66.588501,78.121468c0.956696,1.701233 2.642639,2.983521 4.041351,3.83844c3.109344,-5.745728 10.325592,-19.399719 14.662933,-30.35022c3.1651,-7.990845 5.730286,-14.865417 7.468384,-19.590088c-0.129761,-2.154549 -0.424255,-4.195503 -1.082947,-4.932381c-1.601501,-1.792419 -27.504364,-34.628784 -46.236786,-54.393616c-18.73291,-19.764343 -49.947571,-49.973816 -53.417542,-53.857115c-3.470062,-3.883241 -8.773865,-4.133729 -8.773865,-4.133729c0,0 -0.194489,-3.335632 -2.069824,-4.876221c-3.762573,-3.090637 -8.314087,-4.75061 -12.233063,-5.654053c-17.803894,1.854004 -39.06839,5.509094 -62.347839,12.374451l0,0z" id="path10195" fill="#ffffff"/>
    <path d="m217.443283,121.350365c-67.285736,64.265388 -93.678085,118.632088 -111.922089,180.540962c-18.53363,62.891846 -14.888115,96.556335 -15.100708,104.775635c-0.147736,5.709656 1.879501,10.365051 5.652466,17.073486c-2.957962,-5.591187 -4.329269,-8.954041 -4.100983,-14.384766c0.339691,-8.076904 -3.862282,-43.316406 15.390793,-105.403625c19.252792,-62.086487 46.641724,-116.673096 116.323303,-182.2826c69.68158,-65.609497 116.539642,-88.998047 189.273285,-106.00122c68.976563,-16.124756 109.901489,-5.265991 116.212524,-2.811157c-0.618286,-0.586975 -1.127869,-0.994934 -1.461975,-1.189697c-2.719971,-1.585938 -43.003052,-14.105347 -116.57901,1.954773c-73.575897,16.06018 -120.770905,39.072387 -190.452026,104.681945c-1.088867,1.025024 -2.167419,2.026245 -3.23558,3.046265l0,0zm-114.569336,314.433113c2.09967,2.393982 7.00708,7.046753 15.170837,9.358215c20.104691,5.693054 74.29538,-5.063965 125.820343,-22.477417c51.524948,-17.41333 119.851212,-57.562439 162.296341,-97.52771c42.445709,-39.965271 64.799042,-63.775208 101.031952,-130.37323c36.23291,-66.598083 40.920105,-108.765877 44.006226,-132.40168c2.368774,-18.13855 -1.336609,-25.526184 -3.890381,-28.879452c2.395447,3.291439 5.204224,10.196468 1.928162,29.034481c-4.03241,23.185486 -7.760986,63.466248 -44.507965,129.488411c-36.747009,66.022827 -59.142792,89.785583 -101.58844,129.750916c-42.445648,39.965271 -110.389557,80.541809 -161.422089,98.506104c-51.032608,17.964417 -105.588394,28.312866 -125.303711,23.055786c-7.380386,-1.96759 -11.56929,-5.445313 -13.541275,-7.534424l0,0zm444.435318,-402.301273c-0.172668,-0.226383 -0.327148,-0.442142 -0.487,-0.633549c0.157898,0.193974 0.322693,0.408203 0.487,0.633549zm-2.166016,-2.602116c0.225525,0.270388 0.494446,0.612793 0.646912,0.783447c0.138062,0.15448 0.319641,0.356567 0.477112,0.533813c-0.188538,-0.211182 -0.803284,-0.944517 -1.124023,-1.317261z" id="path10191" fill="url(#linearGradient10949)" opacity="0.455882"/>
    <path d="m146.553818,250.229095c-3.542511,-0.157043 -5.038467,-0.743469 -2.774292,-6.368225c2.264679,-5.624084 13.867126,-52.469543 84.07666,-118.576363c70.210068,-66.106873 124.196945,-84.012024 131.567703,-84.466309c7.370209,-0.453796 4.687195,3.070129 3.96286,8.242554c-0.724213,5.172424 3.065491,23.555115 -3.598724,31.326599c-6.664215,7.771606 -10.645416,12.018677 -10.645416,12.018677c0,0 2.594299,-7.431091 -2.48999,-13.121155c-5.084412,-5.689453 -48.202057,12.957153 -102.839279,64.40107c-54.636719,51.444031 -66.401627,72.000488 -64.661346,78.84314c1.61087,6.333679 16.150024,1.756348 16.150024,1.756348c0,0 -2.637711,8.470459 -9.170624,13.124756c-11.639984,8.293701 -39.577576,12.818909 -39.577576,12.818909l0,0z" id="path10232" stroke-dashoffset="0" stroke-dasharray="32.00000151, 4.00000018" stroke-miterlimit="4" stroke-width="4" stroke="#000000" fill="none" opacity="0.343137"/>
    <path d="m125.796814,218.004791c-0.152893,3.63623 -1.287766,9.450623 3.03154,6.125854c4.743271,-3.651184 18.100296,-44.734009 88.310059,-110.840828c70.209763,-66.106873 113.491104,-83.132383 120.107346,-86.497314c5.346466,-2.719175 -1.651031,-3.724363 -7.46344,-2.746094c-24.532684,4.128845 -87.967468,40.72467 -123.256622,77.910461c-59.622452,60.495979 -74.156754,95.228889 -80.728882,116.04792z" id="path10234" stroke-dashoffset="0" stroke-dasharray="32.00000151, 4.00000018" stroke-miterlimit="4" stroke-width="4" stroke="#000000" fill="none" opacity="0.343137"/>
    <path d="m144.729767,204.192474c-2.294235,-2.591064 -2.707199,-4.098206 0.437134,-9.397705c3.143875,-5.299072 7.251831,-10.551514 10.556061,-14.107788c3.304672,-3.556274 7.021896,-5.604919 9.339798,-8.713501c2.317444,-3.109131 5.783005,-10.127563 9.110397,-14.178711c3.327927,-4.051086 9.821915,-8.690186 11.381973,-11.092896c1.560638,-2.402039 3.488724,-7.513184 9.569717,-13.659988c6.08107,-6.146904 10.050797,-8.43145 12.070236,-10.315483c2.019455,-1.884033 3.60321,-4.780945 9.454803,-11.187012c5.851593,-6.406189 9.798676,-8.195862 13.080185,-11.257507c3.281067,-3.061462 2.180328,-5.346619 9.93631,-11.163208c7.756134,-5.8172 12.643585,-7.065002 15.672485,-9.891052c3.029388,-2.826538 5.668518,-7.654541 11.634583,-11.328369c5.966003,-3.673767 10.555542,-3.697083 14.548035,-6.476013c3.99295,-2.77887 6.608917,-7.11261 10.854004,-10.127075c4.245575,-3.014343 16.407043,-10.102661 19.527832,-9.702026c3.120636,0.400574 5.277222,0.754028 7.571503,3.345581c2.294739,2.591064 -2.363861,4.097717 -6.585754,6.617859c-4.222412,2.519592 -8.995483,6.499817 -11.014862,8.383789c-2.01944,1.884033 -8.077209,7.53656 -11.060272,9.373474c-2.983093,1.836975 -9.155853,4.757019 -14.36499,7.724365c-5.20874,2.966797 -7.595703,7.559875 -12.62085,11.775574c-5.025635,4.215271 -12.896164,7.300049 -14.938843,9.678833c-2.042099,2.378784 -8.169434,9.515259 -10.94574,12.105774c-2.776779,2.590515 -9.018127,6.994629 -11.542786,9.349609c-2.5242,2.355042 -8.215439,10.504463 -11.221161,12.835625c-3.006165,2.331619 -8.008621,6.052628 -11.818054,10.07991c-3.809494,4.027283 -6.012466,9.868225 -10.074463,14.131104c-4.061615,4.262756 -9.064011,7.984131 -12.391479,12.034729c-3.327911,4.051147 -3.993469,7.984314 -7.848785,13.00116c-3.855316,5.016479 -7.871048,8.290222 -11.451004,12.576355c-3.580078,4.286621 -6.173325,8.125488 -8.031891,11.752686c-1.85907,3.627258 -3.144363,5.299072 -4.497742,3.249939c-1.353821,-2.049072 -4.33638,-5.417542 -4.33638,-5.417542l0,-0.000488z" id="path10214" stroke-miterlimit="4" stroke="#b8b8b8" fill="#eeeeee"/>
    <path d="m140.663025,199.509064c-1.089508,-1.493896 -2.567902,-2.873657 0.697754,-7.460388c3.265686,-4.58667 4.687943,-4.917908 5.532867,-3.697693c0.844955,1.220276 5.213913,6.933838 8.748962,11.164673c3.535065,4.230896 9.193024,9.738525 10.782669,11.517578c1.5896,1.778931 1.623657,4.014709 1.657669,6.250488c0.034134,2.235779 0.35672,3.695801 -2.565994,3.172058c-2.922775,-0.523865 -5.823425,-1.572327 -9.024765,-4.60553c-3.201309,-3.033264 -10.2043,-10.046326 -11.66066,-11.950806c-1.456299,-1.90448 -4.168503,-4.390381 -4.168503,-4.390381z" id="path10216" stroke-miterlimit="4" stroke="#b8b8b8" fill="#ffffff"/>
    <path d="m159.557312,173.403717c-0.956223,-1.619507 -1.234818,-4.128906 0.531357,-6.547791c1.766098,-2.418823 2.865662,-4.210144 4.010345,-4.027954c1.144608,0.182129 1.867264,1.265503 3.079041,2.896301c1.211716,1.630859 3.124084,4.869751 7.526138,9.796265c4.402054,4.926392 7.647491,6.910095 9.48172,8.962769c1.834183,2.052673 4.723801,3.363586 4.257736,5.314331c-0.466141,1.950745 -0.687759,4.175232 -2.121078,4.76886c-1.433258,0.593567 -6.156143,0.25293 -9.857666,-3.065308c-3.701508,-3.318237 -9.648117,-8.050232 -12.215988,-10.92395c-2.567871,-2.873779 -4.691605,-7.173523 -4.691605,-7.173523z" id="path10218" stroke-miterlimit="4" stroke="#b8b8b8" fill="#ffffff"/>
    <path d="m221.277115,101.588219c-0.638947,-1.208435 -0.320313,-3.318542 1.355515,-4.896484c1.675903,-1.577881 3.231171,-5.757446 5.286758,-5.430298c2.055664,0.327087 3.03479,4.382874 6.348495,7.598022c3.313766,3.215088 11.458603,11.836792 14.812027,14.109558c3.353363,2.272766 3.972519,3.952393 4.35228,5.857422c0.379761,1.905029 -0.158478,3.769348 -1.575119,4.650635c-1.416641,0.881348 -2.813431,1.291565 -7.743652,-1.759155c-4.930099,-3.05072 -14.252197,-11.016479 -16.88736,-13.965576c-2.635162,-2.949036 -5.948944,-6.164124 -5.948944,-6.164124z" id="path10220" stroke-miterlimit="4" stroke="#b8b8b8" fill="#ffffff"/>
    <path d="m251.521698,71.300987c1.915222,-1.803284 3.871796,0.879578 5.86795,2.620239c1.996216,1.740601 12.995819,13.557068 15.411377,16.260376c2.415527,2.703308 6.047913,3.808289 5.709503,6.389648c-0.33844,2.581116 0.998901,3.584534 -1.135925,5.14209c-2.134888,1.557678 -5.82666,1.866089 -8.681458,-1.328674c-2.854706,-3.194763 -12.756348,-13.782532 -14.752502,-15.523071c-1.996231,-1.740662 -5.589035,-3.788025 -6.686996,-5.016846c-1.098007,-1.228699 -2.914139,-1.781311 -0.52005,-4.0354c2.394012,-2.25415 4.788101,-4.508362 4.788101,-4.508362z" id="path10222" stroke-miterlimit="4" stroke="#b8b8b8" fill="#ffffff"/>
    <path d="m279.375549,54.125206c2.334595,-0.840637 4.370392,-0.042419 7.244965,2.681213c2.874573,2.723694 13.913818,13.597778 15.450958,15.318115c1.53717,1.720215 3.6539,6.062439 3.335266,8.172485c-0.318634,2.110168 -2.971893,5.060852 -5.466705,4.24231c-2.494812,-0.818665 -5.907684,-1.677917 -7.785004,-6.245483c-1.877258,-4.567627 -11.418945,-12.779236 -13.17572,-14.745239c-1.756744,-1.966003 -3.911438,0.062683 -5.668213,-1.90332c-1.756744,-1.966003 -2.156311,-3.399841 0.198151,-4.71167c2.354431,-1.311829 5.866302,-2.808411 5.866302,-2.808411z" id="path10224" stroke-miterlimit="4" stroke="#b8b8b8" fill="#ffffff"/>
    <path d="m205.794861,114.355553c2.134903,-1.557556 2.235687,1.515259 4.231827,3.255859c1.996155,1.740601 12.635864,11.180962 15.909988,15.338387c3.274109,4.157471 5.270264,5.89801 3.954407,9.852173c-1.315872,3.954041 -1.774933,3.933777 -6.285751,1.845825c-4.510742,-2.088135 -8.623688,-8.171021 -12.596207,-12.123428c-3.972504,-3.952255 -7.74527,-7.187798 -9.941238,-9.645317c-2.195969,-2.45752 -1.218521,-3.830322 0.217911,-5.1828c1.436447,-1.352539 4.509064,-3.340698 4.509064,-3.340698z" id="path10226" stroke-miterlimit="4" stroke="#b8b8b8" fill="#ffffff"/>
    <path d="m304.37616,39.183376c3.511932,-1.496586 5.826935,-1.866276 8.042755,0.120052c2.215759,1.986328 15.749878,13.679321 17.466858,16.587341c1.71698,2.908569 3.614044,7.005249 2.836456,9.09491c-0.777557,2.0896 0.002014,5.42865 -5.606873,2.111877c-5.608826,-3.316772 -8.982117,-5.118713 -11.37793,-8.293152c-2.395477,-3.1745 -4.652679,-9.646973 -8.225769,-12.165527c-3.573151,-2.518616 -4.530365,-1.616577 -5.867889,-2.620422c-1.337616,-1.003296 0.637451,-4.219727 0.637451,-4.219727l2.09494,-0.615353z" id="path10228" stroke-miterlimit="4" stroke="#b8b8b8" fill="#ffffff"/>
    <path d="m182.233963,138.802399c1.675827,-1.577942 1.436432,-1.352478 4.071609,1.596497c2.635162,2.949036 3.493713,4.403137 7.226837,8.580994c3.733109,4.177795 5.129974,3.767639 7.765137,6.716675c2.635101,2.949036 4.890518,3.993042 6.168472,6.409912c1.277908,2.41687 1.497574,2.662598 0.460632,5.448975c-1.036819,2.786316 -6.105728,3.033813 -11.415588,-1.921875c-5.309982,-4.955811 -15.670578,-15.563843 -17.407547,-18.001038c-1.736969,-2.437195 -0.939484,-4.998047 0.237701,-5.654053c1.177261,-0.655945 2.892746,-3.176086 2.892746,-3.176086z" id="path10230" stroke-miterlimit="4" stroke="#b8b8b8" fill="#ffffff"/>
   </g>
  </g>
 </g>
</svg>